<?xml version="1.0" encoding="iso-8859-1"?>
<!-- Uploaded to: SVG Repo, www.svgrepo.com, Generator: SVG Repo Mixer Tools -->
<svg fill="#000000" height="800px" width="800px" version="1.1" id="Layer_1" xmlns="http://www.w3.org/2000/svg" xmlns:xlink="http://www.w3.org/1999/xlink" 
	 viewBox="0 0 512 512" xml:space="preserve">
<g>
	<g>
		<path d="M407.306,252.348h-4.55V32.202h4.55c8.892,0,16.101-7.209,16.101-16.101C423.407,7.209,416.198,0,407.306,0H104.694
			c-8.892,0-16.101,7.209-16.101,16.101c0,8.892,7.209,16.101,16.101,16.101h4.55v220.146h-4.55
			c-8.892,0-16.101,7.209-16.101,16.101v44.591c0,8.892,7.209,16.101,16.101,16.101h4.55v166.757
			c0,8.892,7.209,16.101,16.101,16.101h261.31c8.892,0,16.101-7.209,16.101-16.101V329.142h4.55c8.892,0,16.101-7.209,16.101-16.101
			v-44.591C423.407,259.557,416.198,252.348,407.306,252.348z M141.445,32.202h229.109v28.707H141.445V32.202z M141.445,93.111
			h98.454v51.194l-18.305,14.293c-4.905,3.83-7.164,10.144-5.801,16.216l4.294,19.128c1.948,8.677,10.562,14.131,19.236,12.184
			c8.676-1.947,14.131-10.56,12.183-19.236l-2.062-9.185l6.553-5.118l6.553,5.118l-2.062,9.185
			c-1.947,8.676,3.507,17.288,12.183,19.236c1.187,0.266,2.373,0.394,3.541,0.394c7.367,0,14.014-5.089,15.695-12.578l4.294-19.128
			c1.363-6.072-0.895-12.386-5.801-16.216l-18.305-14.293V93.111h98.454v159.237h-16.724v-14.083
			c0-8.892-7.209-16.101-16.101-16.101s-16.101,7.209-16.101,16.101v14.083h-10.11v-14.083c0-8.892-7.209-16.101-16.101-16.101
			c-8.892,0-16.101,7.209-16.101,16.101v14.083H141.445V93.111z M141.445,479.798V329.142h229.108v150.656H141.445z M391.205,296.94
			h-270.41V284.55h270.41V296.94z"/>
	</g>
</g>
<g>
	<g>
		<circle cx="325.101" cy="363.733" r="15.303"/>
	</g>
</g>
<g>
	<g>
		<path d="M284.546,347.633H171.594c-8.892,0-16.101,7.209-16.101,16.101c0,8.892,7.209,16.101,16.101,16.101h112.952
			c8.892,0,16.101-7.209,16.101-16.101C300.647,354.842,293.438,347.633,284.546,347.633z"/>
	</g>
</g>
</svg>